<svg width="285" height="215" viewBox="0 0 285 215" fill="none" xmlns="http://www.w3.org/2000/svg">
<g clip-path="url(#clip0_116_158)">
<g filter="url(#filter0_d_116_158)">
<path d="M146.147 200.675L268.144 128.525C272.028 126.34 275.357 122.76 271.573 120.411L149.142 49.8052C147.307 48.6663 144.518 47.9189 142.647 49.008L14.6041 123.379C10.7201 125.635 10.023 131.921 13.8927 134.199L130.071 200.547C132.508 201.965 135.273 202.722 138.092 202.745C140.911 202.767 143.688 202.054 146.147 200.675Z" fill="#F1FAEE"/>
</g>
<path style="mix-blend-mode:multiply" d="M93.0875 154.243L73.696 165.013C73.696 165.013 91.8142 179.306 99.9449 182.752L119.358 171.185" fill="url(#paint0_linear_116_158)"/>
<path style="mix-blend-mode:multiply" d="M92.298 111.185L72.9065 121.955C72.9065 121.955 77.5516 129.308 85.7108 132.725L106.667 121.158" fill="url(#paint1_linear_116_158)"/>
<path style="mix-blend-mode:multiply" d="M197.187 153.653C197.187 153.653 220.626 140.52 220.768 140.299L184.354 121.955L163.874 133.786L197.187 153.653Z" fill="url(#paint2_linear_116_158)"/>
<path d="M224.076 100.024L253.81 118.467C254.083 118.636 254.307 118.873 254.46 119.154C254.613 119.436 254.691 119.752 254.684 120.073C254.678 120.394 254.588 120.707 254.423 120.982C254.259 121.257 254.026 121.485 253.746 121.642L208.618 147.161C207.991 147.522 207.279 147.713 206.555 147.713C205.831 147.713 205.12 147.522 204.492 147.161L174.893 129.75C172.759 127.984 173.342 125.365 174.893 124.511L219.758 99.9672C220.415 99.5843 221.164 99.3873 221.925 99.3973C222.685 99.4074 223.429 99.624 224.076 100.024Z" fill="#68E1FD"/>
<path d="M224.076 98.7571L253.81 117.2C254.083 117.369 254.307 117.606 254.46 117.887C254.613 118.169 254.691 118.485 254.684 118.806C254.678 119.127 254.588 119.44 254.423 119.715C254.259 119.99 254.026 120.218 253.746 120.375L208.625 145.915C207.998 146.277 207.287 146.467 206.562 146.467C205.838 146.467 205.127 146.277 204.5 145.915L174.9 128.504C174.553 128.303 174.265 128.013 174.065 127.665C173.865 127.318 173.759 126.923 173.759 126.522C173.759 126.12 173.865 125.726 174.065 125.378C174.265 125.03 174.553 124.741 174.9 124.539L219.765 98.7286C220.419 98.3428 221.165 98.1417 221.924 98.1467C222.684 98.1517 223.427 98.3627 224.076 98.7571Z" fill="white"/>
<path d="M222.098 99.7535L251.982 118.574L207.288 144.164L176.451 126.02L222.098 99.7535Z" fill="#606060"/>
<path d="M189.91 136.341C190.495 136.341 190.97 136.118 190.97 135.843C190.97 135.568 190.495 135.345 189.91 135.345C189.324 135.345 188.85 135.568 188.85 135.843C188.85 136.118 189.324 136.341 189.91 136.341Z" fill="#383097"/>
<path style="mix-blend-mode:multiply" d="M223.201 130.945C223.201 130.945 227.092 123.706 227.113 123.671L226.445 123.336L218.179 128.112L223.201 130.945Z" fill="url(#paint3_linear_116_158)"/>
<path d="M258.15 104.245C258.139 104.193 258.139 104.14 258.15 104.089C257.744 103.876 257.307 103.73 256.855 103.654L229.112 120.226C229.112 120.226 227.448 121.528 230.535 123.286L258.697 106.537C258.67 105.744 258.484 104.965 258.15 104.245Z" fill="#CCCCCC"/>
<path d="M229.056 120.218C229.056 120.218 225.826 123.834 225.769 124.069C225.712 124.304 230.443 123.279 230.443 123.279" fill="#CCCCCC"/>
<path d="M258.596 106.543C259.106 106.248 259.139 105.349 258.67 104.536C258.2 103.722 257.406 103.301 256.896 103.596C256.385 103.891 256.352 104.79 256.822 105.603C257.291 106.417 258.085 106.838 258.596 106.543Z" fill="#F2F2F2"/>
<path d="M117.949 97.1056L129.601 102.722C130.039 102.934 130.411 103.261 130.678 103.668C130.944 104.075 131.095 104.547 131.114 105.033C131.133 105.519 131.019 106.002 130.786 106.428C130.552 106.855 130.206 107.21 129.786 107.455L102.164 123.578C101.567 123.926 100.859 124.03 100.187 123.869C99.515 123.707 98.9314 123.292 98.5579 122.71L91.8499 112.282" fill="#1D3557"/>
<path d="M54.5465 70.0992L147.492 16.5206C148.129 16.1514 148.853 15.957 149.589 15.9568C150.326 15.9566 151.049 16.1507 151.687 16.5196C152.325 16.8885 152.854 17.419 153.221 18.0578C153.589 18.6965 153.782 19.4209 153.78 20.158V75.8934C153.78 76.5052 153.618 77.1062 153.312 77.6359C153.007 78.1657 152.567 78.6056 152.037 78.9115L52.9673 136.135C52.6254 136.332 52.2375 136.436 51.8427 136.436C51.4479 136.436 51.0602 136.332 50.7184 136.134C50.3766 135.936 50.0928 135.652 49.8957 135.31C49.6986 134.968 49.595 134.579 49.5955 134.184V78.6624C49.5979 76.926 50.0566 75.2207 50.9256 73.7177C51.7946 72.2147 53.0433 70.9668 54.5465 70.0992Z" fill="#A8DADC"/>
<path d="M147.478 20.7344L57.3635 72.6189C56.4009 73.1734 55.6014 73.9721 55.0456 74.9343C54.4899 75.8966 54.1975 76.9885 54.198 78.1V119.884C54.1991 120.283 54.3048 120.676 54.5047 121.021C54.7045 121.367 54.9915 121.655 55.337 121.855C55.6825 122.055 56.0745 122.161 56.4737 122.163C56.873 122.164 57.2656 122.061 57.6125 121.863L149.519 69.0883C149.863 68.8916 150.148 68.6077 150.347 68.2652C150.545 67.9227 150.65 67.5339 150.65 67.1379V22.5923C150.649 22.2209 150.551 21.8562 150.365 21.5343C150.18 21.2124 149.914 20.9445 149.594 20.7569C149.274 20.5693 148.91 20.4685 148.539 20.4646C148.168 20.4607 147.802 20.5537 147.478 20.7344Z" fill="white"/>
<path d="M111.898 97.6939C112.132 96.4779 111.461 95.3264 110.4 95.122C109.34 94.9176 108.29 95.7376 108.056 96.9536C107.822 98.1696 108.492 99.3211 109.553 99.5256C110.614 99.73 111.664 98.9099 111.898 97.6939Z" fill="#AB643C"/>
<path d="M152.059 121.201L176.373 135.103C176.627 135.249 176.838 135.461 176.984 135.715C177.131 135.969 177.208 136.258 177.208 136.551C177.208 136.845 177.131 137.133 176.984 137.387C176.838 137.642 176.627 137.853 176.373 138L108.837 176.879C108.018 177.351 107.089 177.6 106.144 177.6C105.199 177.6 104.271 177.351 103.452 176.879L80.6886 163.732C80.4242 163.579 80.2048 163.359 80.0522 163.094C79.8996 162.829 79.8193 162.529 79.8193 162.223C79.8193 161.917 79.8996 161.617 80.0522 161.352C80.2048 161.087 80.4242 160.867 80.6886 160.714L149.021 121.215C149.481 120.945 150.004 120.801 150.538 120.798C151.071 120.796 151.596 120.935 152.059 121.201Z" fill="#1D3557"/>
<path d="M115.317 143.367L122.26 147.481L117.11 150.478C115.687 149.631 111.49 147.168 110.146 146.378L115.317 143.367Z" fill="white"/>
<path d="M122.922 138.946L129.864 143.061L123.341 146.855C122.203 146.193 117.999 143.708 116.377 142.755L122.922 138.946Z" fill="white"/>
<path d="M150.551 122.895L157.6 126.945L151.326 130.59C150.33 130.013 146.076 127.5 144.362 126.49L150.551 122.895Z" fill="white"/>
<path d="M135.698 131.501L142.64 135.615L137.49 138.605C136.274 137.893 132.084 135.423 130.526 134.505L135.698 131.501Z" fill="white"/>
<path d="M143.302 127.102L150.245 131.216L143.693 135.01C142.925 134.569 138.557 131.992 136.729 130.91L143.302 127.102Z" fill="white"/>
<path d="M109.086 146.99L116.029 151.104L111.099 153.952C109.619 153.083 105.451 150.627 104.135 149.851L109.086 146.99Z" fill="white"/>
<path d="M129.466 135.145L136.409 139.26L130.953 142.427C129.672 141.715 125.497 139.217 123.989 138.327L129.466 135.145Z" fill="white"/>
<path d="M103.075 150.485L110.018 154.599L103.495 158.393C102.129 157.596 97.9674 155.14 96.5305 154.293L103.075 150.485Z" fill="white"/>
<path d="M95.4635 154.905L102.406 159.02L90.7046 165.818L83.6479 161.767L95.4635 154.905Z" fill="white"/>
<path d="M158.504 128.148L165.553 132.198L156.441 137.494C155.246 136.782 151.056 134.327 149.477 133.394L158.504 128.148Z" fill="white"/>
<path d="M140.805 138.427L147.748 142.541L142.598 145.538C141.218 144.734 137.056 142.278 135.634 141.438L140.805 138.427Z" fill="white"/>
<path d="M128.043 145.851L134.986 149.965L128.463 153.759C127.154 152.998 122.986 150.535 121.499 149.659L128.043 145.851Z" fill="white"/>
<path d="M134.574 142.05L141.516 146.164L136.06 149.332C134.638 148.499 130.462 146.036 129.096 145.232L134.574 142.05Z" fill="white"/>
<path d="M120.425 150.271L127.367 154.386L122.217 157.383C120.624 156.45 116.434 153.973 115.253 153.282L120.425 150.271Z" fill="white"/>
<path d="M114.193 153.895L121.136 158.009L116.207 160.856C114.585 159.91 110.388 157.425 109.242 156.756L114.193 153.895Z" fill="white"/>
<path d="M148.409 134.007L155.352 138.121L148.829 141.908C147.798 141.31 143.551 138.804 141.865 137.808L148.409 134.007Z" fill="white"/>
<path d="M108.182 157.389L115.125 161.504L108.602 165.298C107.094 164.415 102.911 161.952 101.638 161.198L108.182 157.389Z" fill="white"/>
<path d="M107.514 165.924L98.6503 171.071L91.6008 167.021L100.571 161.803L107.514 165.924Z" fill="white"/>
<path d="M112.706 165.22L117.871 168.288L111.881 171.754L106.639 168.743L112.706 165.22Z" fill="white"/>
<path d="M110.644 172.473L105.551 175.427L100.301 172.423L105.487 169.412L110.644 172.473Z" fill="white"/>
<path d="M167.196 133.551L172.603 136.548L166.471 140.107L161.164 137.053L167.196 133.551Z" fill="white"/>
<path d="M160.019 137.722L165.233 140.819L158.688 144.62L153.389 141.573L160.019 137.722Z" fill="white"/>
<path d="M152.236 142.242L157.443 145.338L119.116 167.561L113.859 164.543L152.236 142.242Z" fill="white"/>
<path style="mix-blend-mode:multiply" d="M169.344 76.6907L159.385 82.5774C159.385 82.5774 162.459 87.973 170.056 91.162L181.622 84.9407" fill="url(#paint4_linear_116_158)"/>
<path d="M177.418 85.4246C182.506 85.4246 186.63 82.5182 186.63 78.9328C186.63 75.3475 182.506 72.441 177.418 72.441C172.331 72.441 168.206 75.3475 168.206 78.9328C168.206 82.5182 172.331 85.4246 177.418 85.4246Z" fill="#A8DADC"/>
<path d="M177.426 77.9221C181.236 77.9221 184.326 76.6569 184.326 75.0962C184.326 73.5355 181.236 72.2703 177.426 72.2703C173.615 72.2703 170.525 73.5355 170.525 75.0962C170.525 76.6569 173.615 77.9221 177.426 77.9221Z" fill="#974C26"/>
<path d="M177.881 75.1601C178.421 74.3985 178.969 73.6012 179.538 72.7044C180.25 71.5583 180.961 70.3909 181.58 69.1808C182.162 68.1111 182.659 66.9972 183.067 65.8495C183.52 64.6029 183.884 63.3255 184.155 62.0271C184.226 61.6854 184.283 61.3152 184.347 61.002C184.347 60.8454 184.347 60.8597 184.347 60.881C184.347 60.9024 184.347 60.7743 184.347 60.5821C184.411 59.8702 184.454 59.1584 184.461 58.4893C184.492 56.0685 184.025 53.6672 183.088 51.4352C180.597 55.0497 178.918 59.1609 178.165 63.4863C178.118 63.7425 178.073 64.0012 178.03 64.2622C178.03 64.2622 177.959 64.732 177.931 64.9242L177.859 65.5719C177.826 65.8994 177.795 66.2292 177.767 66.5613C177.667 67.8355 177.618 69.1097 177.625 70.3838C177.682 71.9783 177.753 73.5728 177.881 75.1601ZM180.812 56.1118C180.978 55.922 181.151 55.7369 181.331 55.5566C181.294 55.7207 181.294 55.8908 181.331 56.0549C181.158 56.0457 180.985 56.0649 180.819 56.1118H180.812Z" fill="#999A1C"/>
<path d="M178.058 75.2671C178.108 74.3346 178.13 73.3666 178.122 72.306C178.122 70.9464 178.058 69.5939 177.937 68.2415C177.85 67.026 177.667 65.8193 177.39 64.6326C177.099 63.3374 176.716 62.0648 176.244 60.8243C176.116 60.4969 175.988 60.1766 175.846 59.8562C175.782 59.7068 175.796 59.721 175.811 59.7424L175.668 59.479C175.341 58.8597 175.007 58.2475 174.637 57.6567C173.352 55.6001 171.657 53.8311 169.657 52.4604C169.513 56.8524 170.321 61.2236 172.026 65.2732C172.126 65.5152 172.228 65.7525 172.332 65.985L172.609 66.5972L172.901 67.188C173.048 67.4822 173.2 67.7764 173.356 68.0706C173.961 69.1953 174.608 70.2915 175.298 71.3664C176.166 72.7117 177.091 74.0072 178.058 75.2671ZM170.234 57.6567C170.271 57.4052 170.316 57.1679 170.369 56.9449C170.417 57.1056 170.499 57.2538 170.611 57.3791C170.471 57.4546 170.344 57.5506 170.234 57.6638V57.6567Z" fill="#999A1C"/>
<path d="M178.101 75.7653C177.824 75.2457 177.525 74.719 177.184 74.1424C176.743 73.4306 176.273 72.7188 175.761 72.0069C175.315 71.3805 174.82 70.7902 174.281 70.2416C173.706 69.6359 173.088 69.0721 172.432 68.5546L171.934 68.1489C171.848 68.0919 171.863 68.0919 171.877 68.0991L171.713 67.9994C171.336 67.7716 170.959 67.551 170.568 67.3517C169.215 66.6557 167.733 66.2462 166.215 66.1487C167.553 68.5626 169.397 70.6582 171.621 72.2917L172.019 72.5835L172.361 72.8255L172.709 73.0462L173.243 73.3736C173.93 73.7865 174.642 74.1709 175.377 74.5268C176.252 74.9895 177.169 75.3952 178.101 75.7653ZM168.199 68.7895C168.138 68.6424 168.081 68.4929 168.029 68.3411C168.106 68.4127 168.198 68.4662 168.299 68.4977C168.251 68.5892 168.217 68.6877 168.199 68.7895Z" fill="#999A1C"/>
<path d="M177.881 75.1601C178.421 74.3985 178.969 73.6012 179.538 72.7044C180.25 71.5583 180.961 70.3909 181.58 69.1808C182.162 68.1111 182.659 66.9972 183.067 65.8495C183.52 64.6029 183.884 63.3255 184.155 62.0271C184.226 61.6854 184.283 61.3152 184.347 61.002C184.347 60.8454 184.347 60.8597 184.347 60.881C184.347 60.9024 184.347 60.7743 184.347 60.5821C184.411 59.8702 184.454 59.1584 184.461 58.4893C184.492 56.0685 184.025 53.6672 183.088 51.4352C180.597 55.0497 178.918 59.1609 178.165 63.4863C178.118 63.7425 178.073 64.0012 178.03 64.2622C178.03 64.2622 177.959 64.732 177.931 64.9242L177.859 65.5719C177.826 65.8994 177.795 66.2292 177.767 66.5613C177.667 67.8355 177.618 69.1097 177.625 70.3838C177.682 71.9783 177.753 73.5728 177.881 75.1601ZM180.812 56.1118C180.978 55.922 181.151 55.7369 181.331 55.5566C181.294 55.7207 181.294 55.8908 181.331 56.0549C181.158 56.0457 180.985 56.0649 180.819 56.1118H180.812Z" fill="#999A1C"/>
<path d="M178.058 75.2671C178.108 74.3346 178.13 73.3666 178.122 72.306C178.122 70.9464 178.058 69.5939 177.937 68.2415C177.85 67.026 177.667 65.8193 177.39 64.6326C177.099 63.3374 176.716 62.0648 176.244 60.8243C176.116 60.4969 175.988 60.1766 175.846 59.8562C175.782 59.7068 175.796 59.721 175.811 59.7424L175.668 59.479C175.341 58.8597 175.007 58.2475 174.637 57.6567C173.352 55.6001 171.657 53.8311 169.657 52.4604C169.513 56.8524 170.321 61.2236 172.026 65.2732C172.126 65.5152 172.228 65.7525 172.332 65.985L172.609 66.5972L172.901 67.188C173.048 67.4822 173.2 67.7764 173.356 68.0706C173.961 69.1953 174.608 70.2915 175.298 71.3664C176.166 72.7117 177.091 74.0072 178.058 75.2671ZM170.234 57.6567C170.271 57.4052 170.316 57.1679 170.369 56.9449C170.417 57.1056 170.499 57.2538 170.611 57.3791C170.471 57.4546 170.344 57.5506 170.234 57.6638V57.6567Z" fill="#999A1C"/>
<path d="M178.101 75.7653C177.824 75.2457 177.525 74.719 177.184 74.1424C176.743 73.4306 176.273 72.7188 175.761 72.0069C175.315 71.3805 174.82 70.7902 174.281 70.2416C173.706 69.6359 173.088 69.0721 172.432 68.5546L171.934 68.1489C171.848 68.0919 171.863 68.0919 171.877 68.0991L171.713 67.9994C171.336 67.7716 170.959 67.551 170.568 67.3517C169.215 66.6557 167.733 66.2462 166.215 66.1487C167.553 68.5626 169.397 70.6582 171.621 72.2917L172.019 72.5835L172.361 72.8255L172.709 73.0462L173.243 73.3736C173.93 73.7865 174.642 74.1709 175.377 74.5268C176.252 74.9895 177.169 75.3952 178.101 75.7653ZM168.199 68.7895C168.138 68.6424 168.081 68.4929 168.029 68.3411C168.106 68.4127 168.198 68.4662 168.299 68.4977C168.251 68.5892 168.217 68.6877 168.199 68.7895Z" fill="#999A1C"/>
<path d="M73.7815 103.583L106.639 86.0937L86.9202 67.2518L73.7815 103.583Z" fill="#E63946"/>
<path d="M132.24 62.255C139.147 62.255 144.746 56.6524 144.746 49.7412C144.746 42.83 139.147 37.2274 132.24 37.2274C125.334 37.2274 119.735 42.83 119.735 49.7412C119.735 56.6524 125.334 62.255 132.24 62.255Z" fill="#A8DADC"/>
<path d="M66.8671 78.9898C64.8753 77.8509 63.0827 80.926 65.0745 82.0649C71.2562 85.624 66.3051 93.3686 61.7027 95.5895C59.6398 96.5789 61.4395 99.6539 63.4953 98.6645C70.68 95.198 75.4033 83.8088 66.8671 78.9898Z" fill="#457B9D"/>
<path d="M123.775 70.2842C121.883 61.4363 109.982 66.8675 112.052 74.8897C112.948 78.3634 116.733 80.3849 120.005 78.6623C121.436 77.8415 122.57 76.5894 123.247 75.0848C123.924 73.5803 124.109 71.9001 123.775 70.2842ZM120.346 72.5051C120.271 73.1622 120.032 73.7896 119.65 74.3296C119.268 74.8695 118.757 75.3045 118.163 75.5944C115.445 76.6336 115.509 73.1813 116.178 71.5299C117.373 68.4691 120.93 68.8606 120.332 72.5336L120.346 72.5051Z" fill="#56403D"/>
<path d="M118.27 183.983C118.342 183.523 118.527 183.087 118.807 182.715C119.088 182.343 119.455 182.045 119.877 181.848L125.034 178.872L133.002 174.253L142.52 168.736L152.649 162.871L162.444 157.176L170.981 152.243L177.276 148.599L180.584 146.684C180.584 146.755 180.698 146.755 180.769 146.734C181.162 146.638 181.573 146.645 181.962 146.754C182.351 146.863 182.706 147.071 182.992 147.357C183.278 147.643 183.485 147.998 183.594 148.387C183.703 148.777 183.71 149.188 183.614 149.581C183.23 151.076 181.957 152.393 180.769 153.304C176.917 156.071 172.898 158.595 168.733 160.863V159.376C171.536 157.838 177.582 154.393 180.114 151.759L178.905 152.471L175.576 154.421L170.561 157.354L164.301 161.013L157.209 165.191L149.768 169.54L142.399 173.847L135.541 177.862L129.658 181.328L125.127 183.976C123.747 184.788 122.246 185.884 120.638 186.197C120.335 186.218 120.03 186.177 119.744 186.076C119.457 185.974 119.194 185.814 118.972 185.607C118.75 185.399 118.572 185.147 118.452 184.868C118.331 184.589 118.269 184.288 118.27 183.983Z" fill="#A8DADC"/>
<path style="mix-blend-mode:multiply" d="M158.589 108.082L147.961 114.417C147.961 114.417 154.94 121.108 163.07 124.532L172.951 118.076" fill="url(#paint5_linear_116_158)"/>
<path d="M157.572 103.562V108.537L172.93 118.054L191.368 106.779V102.537" fill="#E54C3C"/>
<path d="M191.368 102.537L175.711 93.1622L157.572 103.562L173.229 113.079L191.368 102.537Z" fill="#E63946"/>
</g>
<defs>
<filter id="filter0_d_116_158" x="-20.4754" y="29.4018" width="325.504" height="217.853" filterUnits="userSpaceOnUse" color-interpolation-filters="sRGB">
<feFlood flood-opacity="0" result="BackgroundImageFix"/>
<feColorMatrix in="SourceAlpha" type="matrix" values="0 0 0 0 0 0 0 0 0 0 0 0 0 0 0 0 0 0 127 0" result="hardAlpha"/>
<feOffset dy="12.7169"/>
<feGaussianBlur stdDeviation="15.8961"/>
<feComposite in2="hardAlpha" operator="out"/>
<feColorMatrix type="matrix" values="0 0 0 0 0 0 0 0 0 0 0 0 0 0 0 0 0 0 0.07 0"/>
<feBlend mode="normal" in2="BackgroundImageFix" result="effect1_dropShadow_116_158"/>
<feBlend mode="normal" in="SourceGraphic" in2="effect1_dropShadow_116_158" result="shape"/>
</filter>
<linearGradient id="paint0_linear_116_158" x1="115.901" y1="152.307" x2="88.5205" y2="174.577" gradientUnits="userSpaceOnUse">
<stop stop-color="#D4A397"/>
<stop offset="1" stop-color="white"/>
</linearGradient>
<linearGradient id="paint1_linear_116_158" x1="5112.71" y1="3369.06" x2="4414.64" y2="4259.65" gradientUnits="userSpaceOnUse">
<stop stop-color="#D4A397"/>
<stop offset="1" stop-color="white"/>
</linearGradient>
<linearGradient id="paint2_linear_116_158" x1="200.509" y1="124.973" x2="186.604" y2="145.444" gradientUnits="userSpaceOnUse">
<stop offset="0.01" stop-color="#4D4D4D"/>
<stop offset="1" stop-color="white"/>
</linearGradient>
<linearGradient id="paint3_linear_116_158" x1="3052.58" y1="1423.92" x2="3007.31" y2="1502.24" gradientUnits="userSpaceOnUse">
<stop offset="0.01" stop-color="#4D4D4D"/>
<stop offset="1" stop-color="white"/>
</linearGradient>
<linearGradient id="paint4_linear_116_158" x1="176.088" y1="77.673" x2="166.115" y2="88.5929" gradientUnits="userSpaceOnUse">
<stop stop-color="#78B46A"/>
<stop offset="0.03" stop-color="#7F3500"/>
<stop offset="1" stop-color="white"/>
</linearGradient>
<linearGradient id="paint5_linear_116_158" x1="6152.76" y1="2584.32" x2="5810.6" y2="3007.53" gradientUnits="userSpaceOnUse">
<stop stop-color="#D4A397"/>
<stop offset="1" stop-color="white"/>
</linearGradient>
<clipPath id="clip0_116_158">
<rect width="284.541" height="214.598" fill="white"/>
</clipPath>
</defs>
</svg>
